<svg xmlns="http://www.w3.org/2000/svg" id="afdfd1e9-9b52-4ce3-aad9-0a68bb11f588" width="1137" height="693.112" data-name="Layer 1" viewBox="0 0 1137 693.112"><title>coming home</title><path fill="#3f3d56" d="M168.89819,796.55591l-1.95117-.43945c21.75586-96.751,76.43018-184.60937,153.95117-247.3916A444.114,444.114,0,0,1,1033.053,794.9358l-1.94922.44336C985.05005,593.17017,807.82935,451.94459,600.134,451.94459,395.1604,451.94459,213.79956,596.87427,168.89819,796.55591Z" transform="translate(-31.5 -103.44409)"/><circle cx="417.133" cy="69.403" r="54.315" fill="#ff6584"/><path fill="#3f3d56" d="M214.63058,784.217c1.694,6.26185,7.4961,10.14,7.4961,10.14s3.05572-6.27434,1.36177-12.53619-7.49609-10.14-7.49609-10.14S212.93664,777.95518,214.63058,784.217Z" transform="translate(-31.5 -103.44409)"/><path fill="#00bfa6" d="M217.11972,782.87129c4.64821,4.52485,5.216,11.48059,5.216,11.48059s-6.9685-.38048-11.61672-4.90533-5.216-11.4806-5.216-11.4806S212.4715,778.34644,217.11972,782.87129Z" transform="translate(-31.5 -103.44409)"/><path fill="#3f3d56" d="M343.63058,784.217c1.69395,6.26185,7.4961,10.14,7.4961,10.14s3.05572-6.27434,1.36177-12.53619-7.49609-10.14-7.49609-10.14S341.93664,777.95518,343.63058,784.217Z" transform="translate(-31.5 -103.44409)"/><path fill="#00bfa6" d="M346.11972,782.87129c4.64821,4.52485,5.216,11.48059,5.216,11.48059s-6.9685-.38048-11.61672-4.90533-5.216-11.4806-5.216-11.4806S341.4715,778.34644,346.11972,782.87129Z" transform="translate(-31.5 -103.44409)"/><polygon fill="#3f3d56" points="337.71 181.988 317.286 165.648 431.66 63.529 721.679 63.529 721.679 153.394 533.779 280.022 337.71 181.988"/><polygon fill="#ccc" points="774.556 120.812 774.556 65.569 736.05 65.569 736.05 79.098 721.679 63.529 627.729 165.648 590.966 190.157 533.964 606.62 619.93 692.585 819.714 692.585 819.714 169.733 774.556 120.812"/><rect width="310.443" height="526.936" x="317.286" y="165.648" fill="#f2f2f2"/><rect width="57.187" height="128.671" x="437.787" y="563.914" fill="#ccc"/><polygon fill="#3f3d56" points="376.515 600.677 376.515 580.253 352.007 580.253 352.007 600.677 374.473 600.677 376.515 600.677"/><polygon fill="#3f3d56" points="374.473 617.016 352.007 617.016 352.007 637.44 376.515 637.44 376.515 617.016 374.473 617.016"/><rect width="24.509" height="20.424" x="392.855" y="580.253" fill="#3f3d56"/><rect width="24.509" height="20.424" x="392.855" y="617.016" fill="#3f3d56"/><polygon fill="#3f3d56" points="543.991 600.677 543.991 580.253 519.483 580.253 519.483 600.677 541.949 600.677 543.991 600.677"/><polygon fill="#3f3d56" points="541.949 617.016 519.483 617.016 519.483 637.44 543.991 637.44 543.991 617.016 541.949 617.016"/><rect width="24.509" height="20.424" x="560.33" y="580.253" fill="#3f3d56"/><rect width="24.509" height="20.424" x="560.33" y="617.016" fill="#3f3d56"/><polygon fill="#3f3d56" points="715.552 192.199 715.552 171.776 691.043 171.776 691.043 192.199 713.51 192.199 715.552 192.199"/><polygon fill="#3f3d56" points="713.51 208.539 691.043 208.539 691.043 228.962 715.552 228.962 715.552 208.539 713.51 208.539"/><rect width="24.509" height="20.424" x="731.891" y="171.776" fill="#3f3d56"/><rect width="24.509" height="20.424" x="731.891" y="208.539" fill="#3f3d56"/><polygon fill="#3f3d56" points="715.552 306.573 715.552 286.149 691.043 286.149 691.043 306.573 713.51 306.573 715.552 306.573"/><polygon fill="#3f3d56" points="713.51 322.912 691.043 322.912 691.043 343.336 715.552 343.336 715.552 322.912 713.51 322.912"/><rect width="24.509" height="20.424" x="731.891" y="286.149" fill="#3f3d56"/><rect width="24.509" height="20.424" x="731.891" y="322.912" fill="#3f3d56"/><polygon fill="#3f3d56" points="715.552 420.947 715.552 400.523 691.043 400.523 691.043 420.947 713.51 420.947 715.552 420.947"/><polygon fill="#3f3d56" points="713.51 437.286 691.043 437.286 691.043 457.71 715.552 457.71 715.552 437.286 713.51 437.286"/><rect width="24.509" height="20.424" x="731.891" y="400.523" fill="#3f3d56"/><rect width="24.509" height="20.424" x="731.891" y="437.286" fill="#3f3d56"/><polygon fill="#3f3d56" points="715.552 535.321 715.552 514.897 691.043 514.897 691.043 535.321 713.51 535.321 715.552 535.321"/><polygon fill="#3f3d56" points="713.51 551.66 691.043 551.66 691.043 572.084 715.552 572.084 715.552 551.66 713.51 551.66"/><rect width="24.509" height="20.424" x="731.891" y="514.897" fill="#3f3d56"/><rect width="24.509" height="20.424" x="731.891" y="551.66" fill="#3f3d56"/><rect width="236.917" height="49.017" x="352.007" y="192.199" fill="#3f3d56"/><rect width="236.917" height="49.017" x="352.007" y="290.234" fill="#3f3d56"/><rect width="236.917" height="49.017" x="352.007" y="388.269" fill="#3f3d56"/><rect width="236.917" height="49.017" x="352.007" y="486.304" fill="#3f3d56"/><rect width="1137" height="2" y="690.529" fill="#3f3d56"/><rect width="5.875" height="232.053" x="190.405" y="459.615" fill="#3f3d56"/><path fill="#00bfa6" d="M281.99715,592.63138c.374,81.14332-56.71464,147.18749-56.71464,147.18749s-57.695-65.51515-58.06894-146.65847,56.71464-147.18749,56.71464-147.18749S281.62317,511.48806,281.99715,592.63138Z" transform="translate(-31.5 -103.44409)"/><path d="M281.99715,592.63138c.374,81.14332-56.71464,147.18749-56.71464,147.18749s-57.695-65.51515-58.06894-146.65847,56.71464-147.18749,56.71464-147.18749S281.62317,511.48806,281.99715,592.63138Z" opacity=".1" transform="translate(-31.5 -103.44409)"/><rect width="5.875" height="232.053" x="114.033" y="459.615" fill="#3f3d56"/><path fill="#00bfa6" d="M205.62511,592.63138c.374,81.14332-56.71464,147.18749-56.71464,147.18749s-57.695-65.51515-58.06894-146.65847,56.71465-147.18749,56.71465-147.18749S205.25114,511.48806,205.62511,592.63138Z" transform="translate(-31.5 -103.44409)"/><path fill="#f2f2f2" d="M977.0545,268.76437c-46.27672.21329-83.94415.897-83.94415.897s44.77365-59.30728,83.77623-37.33436,83.80663,36.56195,83.80663,36.56195S1023.33123,268.55108,977.0545,268.76437Z" transform="translate(-31.5 -103.44409)"/><path fill="#f2f2f2" d="M206.0545,382.76437c-46.27672.21329-83.94415.897-83.94415.897s44.77365-59.30728,83.77623-37.33436,83.80663,36.562,83.80663,36.562S252.33123,382.55108,206.0545,382.76437Z" transform="translate(-31.5 -103.44409)"/><path fill="#f2f2f2" d="M374.0545,144.76437c-46.27672.21329-83.94415.897-83.94415.897s44.77365-59.30728,83.77623-37.33436,83.80663,36.562,83.80663,36.562S420.33123,144.55108,374.0545,144.76437Z" transform="translate(-31.5 -103.44409)"/><rect width="5.875" height="232.053" x="1035.033" y="459.615" fill="#3f3d56"/><path fill="#00bfa6" d="M1126.62511,592.63138c.374,81.14332-56.71464,147.18749-56.71464,147.18749s-57.695-65.51515-58.06894-146.65847,56.71465-147.18749,56.71465-147.18749S1126.25114,511.48806,1126.62511,592.63138Z" transform="translate(-31.5 -103.44409)"/><polygon fill="#3f3d56" points="824.667 547.629 883.956 547.629 883.956 533.318 916.667 533.318 916.667 547.629 978 547.629 978 611.007 916.667 611.007 916.667 690.74 883.956 690.74 883.956 611.007 824.667 611.007 794 576.251 824.667 547.629"/></svg>